# xmcd
#
# Track frame offsets:
# 150
# 19046
# 40835
# 55839
# 80597
# 94791
# 116030
# 133461
# 148899
# 178573
#
# Disc length: 2554 seconds
#
#
# Revision: 0
# Processed by: cddbd v1.5PL3 Copyright (c) Steve Scherf et al.
# Submitted via: FreeRIP 2.53 
#
DISCID=8d09f80a
DTITLE=Eddie M and Blueshound - Eddie M and Blueshound
DYEAR=2003
DGENRE=Blues
TTITLE0=Club Disco
TTITLE1=Gambling Blues
TTITLE2=Computer Blues
TTITLE3=Closing Time
TTITLE4=Thinking of You
TTITLE5=Rolling and Tumbling
TTITLE6=Burning Flame
TTITLE7=Don't Ever Leave
TTITLE8=Morning After
TTITLE9=A Man Like Me
EXTD=BluesfestRadio.com
EXTT0=
EXTT1=
EXTT2=
EXTT3=
EXTT4=
EXTT5=
EXTT6=
EXTT7=
EXTT8=
EXTT9=
PLAYORDER=
